<svg version="1.0" xmlns="http://www.w3.org/2000/svg"
 width="512" height="512" viewBox="0 0 512 512">
  <!-- Brand green background with rounded corners -->
  <rect width="512" height="512" rx="96" ry="96" fill="#00de5a"/>
  <!-- White logo centered and scaled to fit -->
  <g transform="translate(256,256) scale(0.073,-0.073) translate(-3000,-3000)" fill="#ffffff" stroke="none">
    <path d="M2220 5798 c0 -4 7 -24 16 -45 9 -21 20 -47 25 -58 4 -11 64 -145 133 -298 69 -153 126 -281 126 -285 0 -20 148 -295 196 -365 51 -74 57 -90 33 -93 -5 -1 -14 -2 -19 -3 -28 -3 -70 -60 -76 -102 -8 -57 -23 -80 -79 -120 -77 -55 -80 -64 -76 -229 1 -80 3 -173 5 -207 1 -35 -2 -63 -6 -63 -8 0 -28 14 -162 108 -46 33 -76 36 -76 9 0 -12 35 -40 180 -141 30 -21 56 -40 58 -41 5 -4 11 -45 7 -45 -2 0 -77 47 -167 104 -123 78 -163 108 -161 122 1 10 5 44 8 74 8 66 8 242 0 308 -9 67 -42 199 -63 252 -22 57 -71 150 -78 150 -2 0 -1 -8 4 -17 30 -56 54 -120 74 -194 20 -73 23 -107 23 -269 0 -114 -5 -204 -12 -235 -27 -109 -27 -110 19 -148 24 -19 105 -78 180 -132 75 -54 145 -105 156 -115 16 -15 18 -32 16 -146 -3 -163 -14 -367 -20 -373 -3 -4 -130 18 -264 44 -231 46 -313 49 -575 20 -22 -2 -71 -7 -110 -11 -38 -3 -83 -8 -100 -10 -16 -2 -66 -7 -110 -10 -143 -11 -94 -16 85 -9 347 14 548 14 609 -2 31 -8 63 -16 71 -18 8 -2 99 -25 202 -51 l187 -48 -5 -40 c-30 -243 -52 -306 -158 -449 -101 -136 -231 -328 -316 -468 -72 -118 -237 -440 -262 -511 -15 -43 -15 -49 -2 -63 18 -18 34 -20 34 -4 0 6 29 70 64 142 70 144 202 368 304 517 99 143 307 419 333 440 19 16 74 223 88 335 30 230 34 342 35 847 1 262 3 478 6 480 99 73 140 123 140 171 0 64 -6 62 260 62 202 0 242 -3 250 -15 5 -8 8 -19 7 -24 -2 -5 -95 -9 -210 -8 -190 0 -208 -1 -217 -18 -7 -13 -6 -20 6 -24 9 -3 109 -6 223 -6 l207 0 17 -30 c10 -16 39 -46 65 -67 26 -20 51 -40 56 -44 4 -4 7 -69 6 -146 -1 -76 -3 -206 -5 -289 l-2 -151 -158 -364 c-87 -200 -166 -382 -176 -404 -10 -22 -93 -213 -184 -425 -91 -212 -172 -398 -180 -415 -7 -16 -37 -84 -65 -150 -29 -66 -58 -133 -66 -150 -56 -125 -164 -382 -164 -393 0 -8 16 -62 36 -122 35 -106 36 -107 73 -119 56 -16 75 -15 66 7 -29 71 -45 27 306 859 183 433 334 798 336 809 6 27 -14 41 -32 23 -12 -12 -98 -212 -211 -487 -19 -46 -42 -102 -53 -125 -10 -23 -35 -82 -55 -132 -21 -49 -46 -109 -57 -132 -10 -24 -19 -45 -19 -48 0 -2 -11 -28 -24 -57 -13 -29 -56 -132 -96 -228 -40 -96 -83 -197 -95 -225 -12 -27 -28 -65 -35 -83 l-13 -34 -14 32 c-7 18 -13 42 -13 53 0 12 33 98 74 192 56 129 659 1519 752 1735 9 19 46 105 83 190 l68 154 189 138 c104 75 194 145 201 155 9 14 8 34 -2 88 -7 39 -16 95 -20 125 -6 59 -7 268 -1 279 2 3 7 30 11 60 9 71 49 193 86 261 16 30 23 46 14 35 -62 -76 -131 -268 -149 -415 -12 -95 -8 -300 8 -394 1 -6 -316 -216 -327 -216 -3 0 2 309 6 420 5 103 -3 129 -51 166 -78 60 -102 90 -102 125 0 48 -33 97 -79 117 l-39 17 53 81 c66 101 131 224 202 384 49 112 97 218 184 407 59 129 112 263 105 263 -12 0 -343 -591 -446 -795 -41 -82 -90 -194 -109 -247 -32 -93 -35 -98 -62 -99 -16 0 -92 -1 -169 -1 -77 0 -149 1 -159 1 -14 1 -24 15 -36 54 -46 140 -109 276 -220 472 -34 61 -78 139 -97 175 -119 221 -257 456 -258 438z"/>
    <path d="M1599 5153 c-352 -236 -659 -591 -841 -973 -169 -352 -247 -712 -242 -1108 1 -103 5 -198 8 -212 2 -14 7 -50 10 -80 4 -30 8 -66 11 -80 3 -14 8 -41 11 -60 23 -143 113 -421 190 -585 60 -128 247 -435 283 -465 3 -3 24 -27 46 -55 72 -92 195 -218 297 -308 271 -235 593 -412 926 -508 133 -39 121 -36 282 -64 191 -33 426 -45 585 -31 22 2 74 7 115 11 41 3 82 8 90 10 8 2 32 6 53 10 302 44 663 187 944 375 633 421 1028 1078 1110 1845 14 126 5 547 -12 575 -1 3 -6 25 -9 51 -13 98 -69 321 -105 419 -116 314 -250 547 -451 785 -75 88 -237 248 -315 310 -27 22 -52 42 -55 46 -10 11 -176 127 -198 138 -18 10 -23 9 -28 -4 -5 -11 12 -32 52 -67 373 -327 630 -712 773 -1161 29 -90 63 -229 75 -302 31 -197 36 -264 36 -430 -1 -115 -2 -146 -15 -260 -78 -708 -503 -1353 -1125 -1707 -97 -55 -115 -64 -232 -117 -118 -53 -367 -127 -492 -147 -21 -3 -47 -7 -57 -9 -131 -25 -555 -26 -631 0 -7 2 -31 6 -53 9 -22 3 -80 14 -130 25 -827 185 -1499 865 -1689 1711 -24 106 -28 129 -45 275 -9 72 -7 473 2 511 3 12 8 45 12 75 48 378 258 848 532 1189 73 91 284 307 346 354 36 27 46 49 28 60 -4 3 -46 -20 -92 -51z"/>
    <path d="M3971 3279 c-25 -5 -63 -11 -85 -15 -23 -3 -95 -16 -161 -29 -66 -13 -136 -26 -155 -30 -84 -13 -131 -28 -140 -45 -5 -9 -8 -19 -6 -21 2 -2 6 -31 9 -64 8 -86 26 -190 37 -220 5 -14 8 -25 5 -25 -2 0 5 -25 16 -57 24 -72 55 -202 64 -272 4 -30 9 -63 11 -75 8 -39 18 -220 18 -321 0 -102 -12 -313 -18 -324 -2 -3 -7 -31 -10 -61 -4 -30 -14 -86 -22 -125 -8 -38 -17 -81 -20 -95 -3 -14 -27 -90 -53 -168 l-49 -144 36 7 c62 11 66 14 84 57 19 49 63 196 74 248 4 19 9 40 10 45 4 15 24 125 30 160 2 17 6 43 9 59 10 57 20 254 19 364 -1 61 1 112 5 112 3 0 48 -70 100 -155 145 -240 149 -245 166 -239 8 3 15 12 15 20 0 7 -62 114 -137 236 -167 272 -160 259 -168 338 -4 36 -9 70 -12 75 -2 6 10 -6 27 -25 52 -59 233 -318 325 -465 80 -130 235 -428 235 -454 0 -16 16 -14 34 4 14 14 13 21 -5 68 -104 265 -306 607 -576 976 -100 137 -126 209 -158 443 -2 20 0 40 5 43 6 3 123 35 262 70 l252 63 191 -3 c104 -2 262 -6 350 -8 155 -5 144 2 -30 18 -38 3 -81 8 -95 10 -29 4 -120 13 -205 21 -114 9 -240 11 -284 3z"/>
    <path d="M97 3213 c-6 -12 -1 -299 7 -373 11 -102 20 -173 31 -230 3 -14 7 -41 10 -60 3 -19 15 -71 26 -115 11 -44 22 -90 25 -101 6 -32 83 -264 99 -299 8 -16 26 -59 40 -95 74 -182 251 -476 391 -651 367 -456 828 -774 1379 -952 104 -34 306 -84 369 -93 15 -2 35 -5 45 -8 9 -3 45 -8 81 -11 36 -4 73 -9 82 -10 30 -6 251 -18 323 -18 78 0 276 11 315 17 14 2 48 7 75 10 219 27 491 99 716 191 418 171 764 420 1078 775 268 303 484 695 597 1084 37 126 89 372 99 466 3 30 8 72 11 93 10 68 12 377 2 383 -14 9 -18 2 -23 -42 -20 -162 -38 -281 -56 -363 -11 -53 -22 -107 -25 -121 -5 -28 -7 -34 -60 -205 -118 -382 -334 -768 -594 -1066 -78 -89 -221 -231 -292 -290 -34 -28 -67 -57 -74 -63 -7 -7 -57 -45 -111 -83 -346 -249 -737 -416 -1148 -492 -206 -39 -294 -46 -535 -46 -199 1 -322 11 -484 41 -386 70 -767 226 -1081 442 -78 53 -239 177 -274 211 -181 171 -251 245 -352 371 -249 311 -439 675 -549 1055 -18 61 -33 117 -35 125 -2 8 -8 36 -14 63 -6 26 -14 64 -17 85 -3 20 -7 44 -9 52 -3 8 -7 33 -10 55 -3 22 -7 49 -10 60 -4 22 -16 122 -20 170 -4 44 -4 45 -14 45 -6 0 -12 -3 -14 -7z"/>
  </g>
</svg>
